<svg version="1.1" id="Layer_1" xmlns="http://www.w3.org/2000/svg" xmlns:xlink="http://www.w3.org/1999/xlink" x="0px" y="0px"
	 width="100%" viewBox="0 0 512 512" enable-background="new 0 0 512 512" xml:space="preserve">
<path fill="#f8f9fa" opacity="1.000000" stroke="none" 
	d="
M1.000000,434.000000 
	C1.000000,316.311310 1.000000,198.622650 1.247785,80.133698 
	C6.502058,86.305290 13.550747,87.853050 21.578102,87.040825 
	C23.690353,86.827103 25.852839,87.109825 27.994272,87.621994 
	C27.997387,101.885063 27.949717,115.691040 28.042736,129.496078 
	C28.060308,132.103851 28.446432,134.748505 28.991190,137.306137 
	C30.792393,145.762787 37.049690,149.863632 46.618706,148.981567 
	C53.210945,148.373886 59.364727,140.653183 59.158600,134.053635 
	C58.670742,118.433762 59.011951,102.788002 59.480679,87.086052 
	C64.272469,87.012993 68.650314,86.593582 72.919159,87.097488 
	C79.236961,87.843269 87.801285,79.322182 87.100929,72.959221 
	C86.631310,68.692612 87.118210,64.320724 87.633530,60.000748 
	C95.904785,60.005924 103.722145,60.132275 111.533836,59.975460 
	C121.784805,59.769676 132.066376,59.751316 142.268723,58.879295 
	C150.609512,58.166378 155.729538,50.902344 154.986176,42.366455 
	C154.297150,34.454712 148.220016,29.014357 140.007812,29.003939 
	C122.382965,28.981581 104.758110,28.978975 87.075089,28.505440 
	C87.011375,24.595797 86.802231,21.134655 87.043739,17.705252 
	C87.509735,11.088105 85.297638,6.014820 79.345757,2.739877 
	C79.012337,2.556417 79.105423,1.597817 79.000000,1.000000 
	C197.355347,1.000000 315.710693,1.000000 434.863098,1.245711 
	C428.901184,5.889904 425.912384,11.970904 426.934021,20.103014 
	C427.299011,23.008081 426.910309,26.007837 426.405701,28.974068 
	C408.287781,28.989347 390.629486,29.049473 372.971832,28.973026 
	C366.140045,28.943449 361.434143,32.173927 359.000214,38.254082 
	C356.677002,44.057598 357.676636,49.570339 361.922791,54.475918 
	C366.234833,59.457588 372.131165,59.823456 377.861938,59.915485 
	C394.183197,60.177586 410.511169,60.021561 426.905579,60.491325 
	C426.983002,64.939606 426.972534,68.926765 427.003815,72.913612 
	C427.063782,80.561996 433.402740,86.917152 441.023285,87.001160 
	C445.339386,87.048737 449.655426,87.105522 453.978271,87.616501 
	C453.989868,104.563408 453.978302,121.051994 454.005829,137.540512 
	C454.021851,147.142319 460.624207,155.213684 468.847809,154.781174 
	C478.002075,154.299698 485.115417,148.496246 485.034027,137.626038 
	C484.908081,120.805412 485.015900,103.983047 485.486633,87.093102 
	C489.917175,87.016632 493.891022,86.875069 497.852631,87.035583 
	C502.359802,87.218193 506.130951,86.052315 509.133942,82.467247 
	C510.070160,81.349579 511.692017,80.806244 513.000000,80.000000 
	C513.000000,197.688675 513.000000,315.377350 512.761292,433.860382 
	C507.085571,427.204254 499.376129,426.204742 490.984344,426.965424 
	C489.017700,427.143646 487.012146,426.892303 485.018250,426.380493 
	C485.007233,408.444519 485.049255,390.966431 484.978851,373.488800 
	C484.941101,364.122528 477.881226,356.825714 469.257141,357.015289 
	C460.733948,357.202637 454.020569,364.385529 454.005463,373.409576 
	C453.975677,391.220306 453.980713,409.031097 453.509705,426.908691 
	C449.061584,426.983551 445.074921,426.973114 441.088593,427.003601 
	C433.442078,427.062164 427.080109,433.400238 427.000427,441.018829 
	C426.951813,445.667480 426.910614,450.316162 426.406128,454.974396 
	C408.464905,454.989471 390.979126,455.234344 373.503876,454.911865 
	C362.800903,454.714386 358.602966,462.806000 358.123596,469.763763 
	C357.521149,478.507538 364.297852,484.977325 373.423340,484.993622 
	C391.237549,485.025421 409.051849,485.023254 426.922607,485.497955 
	C426.985962,488.457428 427.204193,490.974945 426.960571,493.446930 
	C426.191284,501.251953 427.983154,507.813171 435.262543,511.985626 
	C435.342560,512.031433 435.094757,512.649231 435.000000,513.000000 
	C316.644653,513.000000 198.289307,513.000000 79.134430,512.755432 
	C85.088234,508.115112 88.101021,502.049652 87.066628,493.910980 
	C86.696793,491.001068 87.088776,487.994385 87.592636,485.020569 
	C105.663155,485.006226 123.281372,484.703583 140.881866,485.130829 
	C149.243622,485.333832 155.721512,478.124908 155.772644,470.052643 
	C155.823608,462.007782 149.361496,454.718658 140.960159,454.886963 
	C123.024452,455.246246 105.076180,454.978821 87.074982,454.505341 
	C87.011375,449.716766 86.590691,445.341614 87.098381,441.076965 
	C87.845306,434.802765 79.369881,426.234741 72.973228,426.897217 
	C68.372551,427.373688 63.673267,426.898132 59.011932,426.389038 
	C59.003883,406.139923 58.780773,386.345428 59.107029,366.559998 
	C59.240345,358.475067 51.240250,349.748840 40.264004,352.386292 
	C32.405563,354.274567 28.033901,360.925751 28.012026,370.456543 
	C27.968887,389.249420 27.994837,408.042480 27.529819,426.907288 
	C23.617718,426.985992 20.159168,427.152771 16.720341,426.962738 
	C11.406688,426.669098 7.062387,428.244568 3.758626,432.575897 
	C3.191504,433.319397 1.936988,433.538605 1.000000,434.000000 
M285.682343,59.004440 
	C294.355621,58.725601 300.127319,52.689896 299.992493,44.039745 
	C299.849823,34.886189 294.044861,28.962513 285.213257,28.995846 
	C275.768616,29.031490 266.324066,29.095844 255.962143,29.047434 
	C246.329559,29.031960 236.694290,28.889669 227.066284,29.092087 
	C224.721909,29.141373 222.198105,29.942677 220.109070,31.058029 
	C214.503296,34.051010 211.729767,40.994453 213.065582,47.704609 
	C213.978271,52.289360 219.819214,58.771267 223.813766,58.924858 
	C234.868134,59.349911 245.934280,59.468975 257.928284,59.814907 
	C261.390411,59.831081 264.856354,59.958076 268.313751,59.838093 
	C273.828918,59.646702 279.338379,59.291016 285.682343,59.004440 
M257.829926,484.933929 
	C267.818542,484.967804 277.808014,485.093964 287.795532,485.003937 
	C294.726837,484.941467 300.825928,478.217926 300.822388,470.008942 
	C300.818817,461.698517 294.722168,455.046204 287.839386,454.993103 
	C277.520142,454.913513 267.198944,455.084503 255.961487,455.047394 
	C246.136124,455.032288 236.309875,454.929352 226.485703,455.030762 
	C219.069748,455.107300 213.047394,461.917542 213.002625,469.985291 
	C212.958420,477.950012 219.035309,484.898468 226.409561,484.963074 
	C236.564911,485.052094 246.722382,484.899811 257.829926,484.933929 
M392.640137,106.224770 
	C347.419281,106.205460 302.198395,106.186150 256.052917,106.022522 
	C212.397278,106.015030 168.741623,106.005440 125.085976,106.001770 
	C115.984169,106.000999 110.002518,111.960869 110.001534,121.028954 
	C109.997581,157.353271 110.075394,193.677887 109.927353,230.001602 
	C109.901939,236.237366 112.790520,240.537491 117.930206,242.793549 
	C122.901733,244.975815 128.630630,245.567291 133.402771,241.973373 
	C145.390167,232.945663 157.127045,223.585968 169.068939,214.496750 
	C172.247635,212.077393 175.635330,208.714630 179.220657,208.295349 
	C187.232330,207.358429 195.428894,208.002426 204.000061,208.002426 
	C204.000061,210.208755 204.000046,211.994827 204.000046,213.780884 
	C204.000046,253.437698 203.749420,293.097321 204.192947,332.749176 
	C204.292114,341.614502 202.177383,348.759827 196.925385,355.808502 
	C189.960571,365.155914 183.167496,374.799408 177.734177,385.073792 
	C172.003128,395.911163 178.148087,407.512665 189.057327,407.802185 
	C211.697449,408.403015 234.367065,407.891876 257.944977,407.984863 
	C279.429352,407.993835 300.914459,407.909821 322.397705,408.070068 
	C328.608978,408.116394 333.157257,405.866058 336.155365,400.442566 
	C339.301392,394.751404 338.932129,389.191345 335.415985,383.842285 
	C327.650024,372.027893 319.911774,360.192963 311.949310,348.511536 
	C309.918976,345.532959 308.921997,342.658386 308.931427,339.018158 
	C309.039612,297.215302 309.000366,255.412064 309.000366,213.608917 
	C309.000366,211.843689 309.000366,210.078461 309.000366,208.011658 
	C317.923889,208.011658 326.226044,207.954163 334.525513,208.077408 
	C335.689178,208.094696 337.004761,208.782547 337.971130,209.523636 
	C349.744141,218.552155 361.506317,227.595963 373.180634,236.751450 
	C378.495392,240.919495 383.461365,245.190552 391.125427,244.128860 
	C397.408875,243.258438 403.974823,237.317490 403.985443,230.910278 
	C404.047302,193.603989 404.043701,156.297516 403.988525,118.991219 
	C403.979889,113.158287 399.119537,107.983627 392.640137,106.224770 
M454.015961,285.037384 
	C455.006012,295.282410 462.828491,300.210815 470.255371,299.840729 
	C479.115295,299.399231 484.986389,292.124878 484.994202,282.388489 
	C485.008789,264.262543 485.070190,246.136185 484.964783,228.010864 
	C484.912506,219.025833 477.778870,211.908905 469.298248,212.016113 
	C460.641937,212.125519 454.021454,219.110260 454.008209,228.255081 
	C453.981293,246.879852 454.002319,265.504700 454.015961,285.037384 
M38.773090,207.967346 
	C31.663891,210.749420 28.049000,216.382553 28.017487,225.131744 
	C27.958097,241.621033 27.957861,258.110901 28.042807,274.599976 
	C28.056255,277.210663 28.454659,279.858673 29.000332,282.420105 
	C30.764071,290.699341 37.563030,295.032898 46.887829,293.983063 
	C53.521111,293.236237 58.987865,286.626678 58.994396,279.260925 
	C59.011230,260.273010 58.556732,241.270126 59.197472,222.303848 
	C59.492977,213.556625 50.182304,204.029175 38.773090,207.967346 
z"/>
<path fill="#FBB043" opacity="1.000000" stroke="none" 
	d="
M87.177124,59.995945 
	C87.118210,64.320724 86.631310,68.692612 87.100929,72.959221 
	C87.801285,79.322182 79.236961,87.843269 72.919159,87.097488 
	C68.650314,86.593582 64.272469,87.012993 59.016926,87.018250 
	C48.057732,87.066246 38.024994,87.115410 27.992254,87.164574 
	C25.852839,87.109825 23.690353,86.827103 21.578102,87.040825 
	C13.550747,87.853050 6.502058,86.305290 1.247785,79.666718 
	C1.000000,56.312439 1.000000,32.624878 1.234456,8.800632 
	C3.645941,6.109300 5.822971,3.554650 8.000000,1.000000 
	C31.354227,1.000000 54.708454,1.000000 78.531342,1.000000 
	C79.105423,1.597817 79.012337,2.556417 79.345757,2.739877 
	C85.297638,6.014820 87.509735,11.088105 87.043739,17.705252 
	C86.802231,21.134655 87.011375,24.595797 86.990074,28.968170 
	C87.034523,39.927811 87.105827,49.961876 87.177124,59.995945 
z"/>
<path fill="#FBB043" opacity="1.000000" stroke="none" 
	d="
M87.133041,485.031860 
	C87.088776,487.994385 86.696793,491.001068 87.066628,493.910980 
	C88.101021,502.049652 85.088234,508.115112 78.667450,512.755432 
	C55.645771,513.000000 32.291542,513.000000 8.801998,512.766724 
	C6.111124,510.355621 3.555568,508.177795 1.000005,506.000000 
	C1.000000,482.312439 1.000000,458.624878 1.000000,434.468658 
	C1.936988,433.538605 3.191504,433.319397 3.758626,432.575897 
	C7.062387,428.244568 11.406688,426.669098 16.720341,426.962738 
	C20.159168,427.152771 23.617718,426.985992 27.992794,426.974060 
	C38.951427,426.928406 48.984695,426.887848 59.017967,426.847290 
	C63.673267,426.898132 68.372551,427.373688 72.973228,426.897217 
	C79.369881,426.234741 87.845306,434.802765 87.098381,441.076965 
	C86.590691,445.341614 87.011375,449.716766 86.989624,454.968018 
	C87.019241,465.606323 87.076141,475.319092 87.133041,485.031860 
z"/>
<path fill="#F46844" opacity="1.000000" stroke="none" 
	d="
M453.971497,87.158157 
	C449.655426,87.105522 445.339386,87.048737 441.023285,87.001160 
	C433.402740,86.917152 427.063782,80.561996 427.003815,72.913612 
	C426.972534,68.926765 426.983002,64.939606 426.987915,60.027756 
	C426.956024,49.056744 426.910797,39.010559 426.865601,28.964375 
	C426.910309,26.007837 427.299011,23.008081 426.934021,20.103014 
	C425.912384,11.970904 428.901184,5.889904 435.330078,1.245711 
	C458.020905,1.000000 481.041779,1.000000 504.201233,1.245775 
	C507.226501,3.661039 510.113251,5.830527 513.000000,8.000008 
	C513.000000,31.687561 513.000000,55.375122 513.000000,79.531342 
	C511.692017,80.806244 510.070160,81.349579 509.133942,82.467247 
	C506.130951,86.052315 502.359802,87.218193 497.852631,87.035583 
	C493.891022,86.875069 489.917175,87.016632 485.021973,87.023949 
	C474.053986,87.068130 464.012726,87.113144 453.971497,87.158157 
z"/>
<path fill="#F46844" opacity="1.000000" stroke="none" 
	d="
M435.468628,513.000000 
	C435.094757,512.649231 435.342560,512.031433 435.262543,511.985626 
	C427.983154,507.813171 426.191284,501.251953 426.960571,493.446930 
	C427.204193,490.974945 426.985962,488.457428 427.013916,485.035156 
	C426.987823,474.394653 426.926971,464.679749 426.866089,454.964844 
	C426.910614,450.316162 426.951813,445.667480 427.000427,441.018829 
	C427.080109,433.400238 433.442078,427.062164 441.088593,427.003601 
	C445.074921,426.973114 449.061584,426.983551 453.974792,426.978210 
	C464.942474,426.933441 474.983490,426.886017 485.024475,426.838593 
	C487.012146,426.892303 489.017700,427.143646 490.984344,426.965424 
	C499.376129,426.204742 507.085571,427.204254 512.761292,434.327362 
	C513.000000,457.687561 513.000000,481.375122 512.757996,505.206055 
	C510.010681,507.899597 507.505341,510.449799 505.000000,513.000000 
	C481.979095,513.000000 458.958221,513.000000 435.468628,513.000000 
z"/>
<path fill="#000000" opacity="1.000000" stroke="none" 
	d="
M505.494751,513.000000 
	C507.505341,510.449799 510.010681,507.899597 512.757996,505.674683 
	C513.000000,508.254578 513.000000,510.509155 513.000000,513.000000 
	C510.665680,513.000000 508.327576,513.000000 505.494751,513.000000 
z"/>
<path fill="#000000" opacity="1.000000" stroke="none" 
	d="
M513.000000,7.502103 
	C510.113251,5.830527 507.226501,3.661039 504.669861,1.245775 
	C507.575470,1.000000 510.150970,1.000000 513.000000,1.000000 
	C513.000000,2.997643 513.000000,5.000916 513.000000,7.502103 
z"/>
<path fill="#000000" opacity="1.000000" stroke="none" 
	d="
M1.000005,506.497925 
	C3.555568,508.177795 6.111124,510.355621 8.333340,512.766724 
	C5.752364,513.000000 3.504728,513.000000 1.000000,513.000000 
	C1.000000,511.001862 1.000000,508.998840 1.000005,506.497925 
z"/>
<path fill="#000000" opacity="1.000000" stroke="none" 
	d="
M7.502095,1.000000 
	C5.822971,3.554650 3.645941,6.109300 1.234456,8.331975 
	C1.000000,5.752362 1.000000,3.504725 1.000000,1.000000 
	C2.998142,1.000000 5.001166,1.000000 7.502095,1.000000 
z"/>
<path fill="#FBB043" opacity="1.000000" stroke="none" 
	d="
M257.024567,407.837830 
	C234.367065,407.891876 211.697449,408.403015 189.057327,407.802185 
	C178.148087,407.512665 172.003128,395.911163 177.734177,385.073792 
	C183.167496,374.799408 189.960571,365.155914 196.925385,355.808502 
	C202.177383,348.759827 204.292114,341.614502 204.192947,332.749176 
	C203.749420,293.097321 204.000046,253.437698 204.000046,213.780884 
	C204.000046,211.994827 204.000061,210.208755 204.000061,208.002426 
	C195.428894,208.002426 187.232330,207.358429 179.220657,208.295349 
	C175.635330,208.714630 172.247635,212.077393 169.068939,214.496750 
	C157.127045,223.585968 145.390167,232.945663 133.402771,241.973373 
	C128.630630,245.567291 122.901733,244.975815 117.930206,242.793549 
	C112.790520,240.537491 109.901939,236.237366 109.927353,230.001602 
	C110.075394,193.677887 109.997581,157.353271 110.001534,121.028954 
	C110.002518,111.960869 115.984169,106.000999 125.085976,106.001770 
	C168.741623,106.005440 212.397278,106.015030 256.536499,106.311264 
	C257.020050,106.600006 257.088531,107.029823 257.062195,107.495949 
	C257.032135,207.920654 257.028351,307.879242 257.024567,407.837830 
z"/>
<path fill="#F46844" opacity="1.000000" stroke="none" 
	d="
M257.484772,407.911346 
	C257.028351,307.879242 257.032135,207.920654 257.521851,107.487045 
	C303.046478,106.995201 348.085114,106.978386 393.123779,106.961578 
	C399.119537,107.983627 403.979889,113.158287 403.988525,118.991219 
	C404.043701,156.297516 404.047302,193.603989 403.985443,230.910278 
	C403.974823,237.317490 397.408875,243.258438 391.125427,244.128860 
	C383.461365,245.190552 378.495392,240.919495 373.180634,236.751450 
	C361.506317,227.595963 349.744141,218.552155 337.971130,209.523636 
	C337.004761,208.782547 335.689178,208.094696 334.525513,208.077408 
	C326.226044,207.954163 317.923889,208.011658 309.000366,208.011658 
	C309.000366,210.078461 309.000366,211.843689 309.000366,213.608917 
	C309.000366,255.412064 309.039612,297.215302 308.931427,339.018158 
	C308.921997,342.658386 309.918976,345.532959 311.949310,348.511536 
	C319.911774,360.192963 327.650024,372.027893 335.415985,383.842285 
	C338.932129,389.191345 339.301392,394.751404 336.155365,400.442566 
	C333.157257,405.866058 328.608978,408.116394 322.397705,408.070068 
	C300.914459,407.909821 279.429352,407.993835 257.484772,407.911346 
z"/>
<path fill="#293939" opacity="1.000000" stroke="none" 
	d="
M454.009766,284.583435 
	C454.002319,265.504700 453.981293,246.879852 454.008209,228.255081 
	C454.021454,219.110260 460.641937,212.125519 469.298248,212.016113 
	C477.778870,211.908905 484.912506,219.025833 484.964783,228.010864 
	C485.070190,246.136185 485.008789,264.262543 484.994202,282.388489 
	C484.986389,292.124878 479.115295,299.399231 470.255371,299.840729 
	C462.828491,300.210815 455.006012,295.282410 454.009766,284.583435 
z"/>
<path fill="#54726F" opacity="1.000000" stroke="none" 
	d="
M39.173737,207.881409 
	C50.182304,204.029175 59.492977,213.556625 59.197472,222.303848 
	C58.556732,241.270126 59.011230,260.273010 58.994396,279.260925 
	C58.987865,286.626678 53.521111,293.236237 46.887829,293.983063 
	C37.563030,295.032898 30.764071,290.699341 29.000332,282.420105 
	C28.454659,279.858673 28.056255,277.210663 28.042807,274.599976 
	C27.957861,258.110901 27.958097,241.621033 28.017487,225.131744 
	C28.049000,216.382553 31.663891,210.749420 39.173737,207.881409 
z"/>
<path fill="#54726F" opacity="1.000000" stroke="none" 
	d="
M59.011932,426.389038 
	C48.984695,426.887848 38.951427,426.928406 28.455185,426.902222 
	C27.994837,408.042480 27.968887,389.249420 28.012026,370.456543 
	C28.033901,360.925751 32.405563,354.274567 40.264004,352.386292 
	C51.240250,349.748840 59.240345,358.475067 59.107029,366.559998 
	C58.780773,386.345428 59.003883,406.139923 59.011932,426.389038 
z"/>
<path fill="#293939" opacity="1.000000" stroke="none" 
	d="
M485.018250,426.380493 
	C474.983490,426.886017 464.942474,426.933441 454.436401,426.911377 
	C453.980713,409.031097 453.975677,391.220306 454.005463,373.409576 
	C454.020569,364.385529 460.733948,357.202637 469.257141,357.015289 
	C477.881226,356.825714 484.941101,364.122528 484.978851,373.488800 
	C485.049255,390.966431 485.007233,408.444519 485.018250,426.380493 
z"/>
<path fill="#293939" opacity="1.000000" stroke="none" 
	d="
M426.405701,28.974068 
	C426.910797,39.010559 426.956024,49.056744 426.918884,59.566498 
	C410.511169,60.021561 394.183197,60.177586 377.861938,59.915485 
	C372.131165,59.823456 366.234833,59.457588 361.922791,54.475918 
	C357.676636,49.570339 356.677002,44.057598 359.000214,38.254082 
	C361.434143,32.173927 366.140045,28.943449 372.971832,28.973026 
	C390.629486,29.049473 408.287781,28.989347 426.405701,28.974068 
z"/>
<path fill="#54726F" opacity="1.000000" stroke="none" 
	d="
M87.633537,60.000748 
	C87.105827,49.961876 87.034523,39.927811 87.048233,29.431011 
	C104.758110,28.978975 122.382965,28.981581 140.007812,29.003939 
	C148.220016,29.014357 154.297150,34.454712 154.986176,42.366455 
	C155.729538,50.902344 150.609512,58.166378 142.268723,58.879295 
	C132.066376,59.751316 121.784805,59.769676 111.533836,59.975460 
	C103.722145,60.132275 95.904785,60.005924 87.633537,60.000748 
z"/>
<path fill="#293939" opacity="1.000000" stroke="none" 
	d="
M453.978271,87.616501 
	C464.012726,87.113144 474.053986,87.068130 484.559875,87.092270 
	C485.015900,103.983047 484.908081,120.805412 485.034027,137.626038 
	C485.115417,148.496246 478.002075,154.299698 468.847809,154.781174 
	C460.624207,155.213684 454.021851,147.142319 454.005829,137.540512 
	C453.978302,121.051994 453.989868,104.563408 453.978271,87.616501 
z"/>
<path fill="#293939" opacity="1.000000" stroke="none" 
	d="
M426.406158,454.974396 
	C426.926971,464.679749 426.987823,474.394653 426.957397,484.572357 
	C409.051849,485.023254 391.237549,485.025421 373.423340,484.993622 
	C364.297852,484.977325 357.521149,478.507538 358.123596,469.763763 
	C358.602966,462.806000 362.800903,454.714386 373.503876,454.911865 
	C390.979126,455.234344 408.464905,454.989471 426.406158,454.974396 
z"/>
<path fill="#54726F" opacity="1.000000" stroke="none" 
	d="
M87.592628,485.020569 
	C87.076141,475.319092 87.019241,465.606323 87.047699,455.430847 
	C105.076180,454.978821 123.024452,455.246246 140.960159,454.886963 
	C149.361496,454.718658 155.823608,462.007782 155.772644,470.052643 
	C155.721512,478.124908 149.243622,485.333832 140.881866,485.130829 
	C123.281372,484.703583 105.663155,485.006226 87.592628,485.020569 
z"/>
<path fill="#54726F" opacity="1.000000" stroke="none" 
	d="
M27.994272,87.621994 
	C38.024994,87.115410 48.057732,87.066246 58.554222,87.084900 
	C59.011951,102.788002 58.670742,118.433762 59.158600,134.053635 
	C59.364727,140.653183 53.210945,148.373886 46.618706,148.981567 
	C37.049690,149.863632 30.792393,145.762787 28.991190,137.306137 
	C28.446432,134.748505 28.060308,132.103851 28.042736,129.496078 
	C27.949717,115.691040 27.997387,101.885063 27.994272,87.621994 
z"/>
<path fill="#54726F" opacity="1.000000" stroke="none" 
	d="
M256.995758,59.708992 
	C245.934280,59.468975 234.868134,59.349911 223.813766,58.924858 
	C219.819214,58.771267 213.978271,52.289360 213.065582,47.704609 
	C211.729767,40.994453 214.503296,34.051010 220.109070,31.058029 
	C222.198105,29.942677 224.721909,29.141373 227.066284,29.092087 
	C236.694290,28.889669 246.329559,29.031960 256.443420,29.555302 
	C256.934814,39.766968 256.944946,49.470764 256.968048,59.307957 
	C256.981018,59.441353 256.995758,59.708992 256.995758,59.708992 
z"/>
<path fill="#54726F" opacity="1.000000" stroke="none" 
	d="
M256.878937,484.850922 
	C246.722382,484.899811 236.564911,485.052094 226.409561,484.963074 
	C219.035309,484.898468 212.958420,477.950012 213.002625,469.985291 
	C213.047394,461.917542 219.069748,455.107300 226.485703,455.030762 
	C236.309875,454.929352 246.136124,455.032288 256.442261,455.555847 
	C256.908325,465.659851 256.893616,475.255402 256.878937,484.850922 
z"/>
<path fill="#2A3A3A" opacity="1.000000" stroke="none" 
	d="
M257.354431,484.892426 
	C256.893616,475.255402 256.908325,465.659851 256.900818,455.606628 
	C267.198944,455.084503 277.520142,454.913513 287.839386,454.993103 
	C294.722168,455.046204 300.818817,461.698517 300.822388,470.008942 
	C300.825928,478.217926 294.726837,484.941467 287.795532,485.003937 
	C277.808014,485.093964 267.818542,484.967804 257.354431,484.892426 
z"/>
<path fill="#2A3A3A" opacity="1.000000" stroke="none" 
	d="
M256.955078,59.174561 
	C256.944946,49.470764 256.934814,39.766968 256.902100,29.605419 
	C266.324066,29.095844 275.768616,29.031490 285.213257,28.995846 
	C294.044861,28.962513 299.849823,34.886189 299.992493,44.039745 
	C300.127319,52.689896 294.355621,58.725601 284.811005,59.052956 
	C274.944824,59.125835 265.949951,59.150200 256.955078,59.174561 
z"/>
<path fill="#F67943" opacity="1.000000" stroke="none" 
	d="
M392.881958,106.593170 
	C348.085114,106.978386 303.046478,106.995201 257.548157,107.020920 
	C257.088531,107.029823 257.020050,106.600006 256.998779,106.383423 
	C302.198395,106.186150 347.419281,106.205460 392.881958,106.593170 
z"/>
<path fill="#54726F" opacity="1.000000" stroke="none" 
	d="
M256.968079,59.307961 
	C265.949951,59.150200 274.944824,59.125835 284.394958,59.053139 
	C279.338379,59.291016 273.828918,59.646702 268.313751,59.838093 
	C264.856354,59.958076 261.390411,59.831081 257.462036,59.761948 
	C256.995758,59.708992 256.981018,59.441353 256.968079,59.307961 
z"/>
</svg>